<?xml version="1.0" encoding="UTF-8"?>
<svg id="Layer_2" data-name="Layer 2" xmlns="http://www.w3.org/2000/svg" viewBox="0 0 54.92 60.05">
  <defs>
    <style>
      .cls-1 {
        fill: #e9ece9;
      }
    </style>
  </defs>
  <g id="Layer_3" data-name="Layer 3">
    <g>
      <path class="cls-1" d="M0,56.59l1.39-6.47c8.47,0,16.85-6.89,18.67-15.36l2.33-10.84H7.04l1.39-6.47h21.83l-3.73,17.31c-2.59,12.04-14.49,21.83-26.53,21.83Z"/>
      <path class="cls-1" d="M46.49,56.59c-12.04,0-19.72-9.79-17.13-21.83l3.73-17.31h21.83l-1.39,6.47h-15.36l-2.33,10.84c-1.82,8.47,3.58,15.36,12.05,15.36l-1.39,6.47Z"/>
      <polygon class="cls-1" points="41.45 7.67 32.13 15.34 26.11 7.67 35.43 0 41.45 7.67"/>
      <path class="cls-1" d="M31.67,54.71l-6.02-7.67-9.32,7.67h0c1.26,1.61,3.04,2.6,5.04,2.99l-2.85,2.34h8.67l-1.84-2.34c2.16-.39,4.37-1.38,6.33-2.99h0Z"/>
    </g>
  </g>
</svg>